<svg width="219" height="216" viewBox="0 0 219 216" fill="none" xmlns="http://www.w3.org/2000/svg">
<g clip-path="url(#clip0_490_36262)">
<path d="M187.641 169.915C189.001 169.915 189.919 171.304 189.387 172.555L171.393 214.846C171.095 215.546 170.408 216 169.647 216H165.292C163.922 216 163.003 214.593 163.555 213.339L168.917 201.156C169.126 200.681 169.131 200.142 168.932 199.663L157.646 172.541C157.126 171.292 158.044 169.915 159.397 169.915H164.212C165.003 169.915 165.712 170.406 165.989 171.148L173.35 190.828C173.473 191.156 173.936 191.157 174.06 190.83L181.528 171.14C181.807 170.402 182.514 169.915 183.302 169.915H187.641Z" fill="#282A31"/>
<path d="M121.383 185.125C121.383 181.952 122.007 179.137 123.256 176.681C124.542 174.226 126.282 172.337 128.477 171.014C130.671 169.692 133.111 169.031 135.797 169.031C137.84 169.031 139.789 169.484 141.643 170.391C143.111 171.079 144.343 171.958 145.336 173.025C145.585 173.293 146.069 173.125 146.069 172.76V160.897C146.069 159.849 146.918 159 147.966 159H152.23C153.278 159 154.127 159.849 154.127 160.897V199.039C154.127 200.087 153.278 200.937 152.23 200.937H147.966C146.918 200.937 146.069 200.087 146.069 199.039V197.595C146.069 197.215 145.543 197.052 145.3 197.343C144.406 198.415 143.282 199.31 141.926 200.03C140.148 200.975 138.086 201.447 135.741 201.447C133.092 201.447 130.671 200.767 128.477 199.407C126.282 198.047 124.542 196.139 123.256 193.683C122.007 191.189 121.383 188.337 121.383 185.125ZM146.126 185.239C146.126 183.312 145.747 181.669 144.991 180.308C144.234 178.911 143.213 177.853 141.926 177.135C140.64 176.379 139.259 176.001 137.784 176.001C136.308 176.001 134.946 176.36 133.698 177.078C132.449 177.796 131.428 178.854 130.633 180.252C129.876 181.612 129.498 183.236 129.498 185.125C129.498 187.015 129.876 188.677 130.633 190.113C131.428 191.51 132.449 192.587 133.698 193.343C134.984 194.098 136.346 194.476 137.784 194.476C139.259 194.476 140.64 194.117 141.926 193.399C143.213 192.644 144.234 191.586 144.991 190.226C145.747 188.828 146.126 187.166 146.126 185.239Z" fill="#282A31"/>
<path d="M78.2522 159C79.3001 159 80.1495 159.849 80.1495 160.897V199.55C80.1495 200.597 79.3001 201.447 78.2522 201.447H73.5574C72.5096 201.447 71.6602 200.597 71.6602 199.55V160.897C71.6602 159.849 72.5096 159 73.5574 159H78.2522Z" fill="#282A31"/>
<path d="M28 181.464C28 177.61 28.8725 174.167 30.6176 171.136C32.4006 168.067 34.8095 165.691 37.8444 164.007C40.9172 162.286 44.3504 161.425 48.144 161.425C52.5825 161.425 56.471 162.548 59.8093 164.793C62.4301 166.556 64.4313 168.849 65.8129 171.672C66.3826 172.836 65.4687 174.111 64.1727 174.111H58.8337C58.1077 174.111 57.4583 173.688 57.073 173.073C56.2207 171.712 55.1222 170.655 53.7775 169.901C52.1463 168.966 50.2495 168.498 48.0871 168.498C45.773 168.498 43.7055 169.04 41.8846 170.126C40.1016 171.173 38.6979 172.67 37.6737 174.616C36.6873 176.562 36.1942 178.845 36.1942 181.464C36.1942 184.046 36.6873 186.329 37.6737 188.312C38.6979 190.258 40.1016 191.773 41.8846 192.859C43.7055 193.906 45.773 194.43 48.0871 194.43C50.2495 194.43 52.1463 193.962 53.7775 193.027C55.1227 192.243 56.2215 191.167 57.0739 189.8C57.458 189.184 58.1077 188.761 58.8337 188.761H64.1805C65.4742 188.761 66.3882 190.032 65.825 191.196C64.4429 194.054 62.4377 196.367 59.8093 198.135C56.5089 200.343 52.6205 201.447 48.144 201.447C44.3504 201.447 40.9172 200.605 37.8444 198.921C34.8095 197.199 32.4006 194.823 30.6176 191.792C28.8725 188.761 28 185.318 28 181.464Z" fill="#282A31"/>
<path d="M108.043 167.489C113.401 167.489 117.745 171.833 117.745 177.191C117.745 180.09 116.471 182.69 114.456 184.468C116.472 186.246 117.745 188.846 117.745 191.745C117.745 197.103 113.401 201.447 108.043 201.447C105.144 201.447 102.543 200.174 100.766 198.158C98.9878 200.174 96.388 201.447 93.4893 201.447C88.1311 201.447 83.7873 197.103 83.7871 191.745C83.7871 188.846 85.0598 186.246 87.0752 184.468C85.0599 182.69 83.7871 180.09 83.7871 177.191C83.7871 171.833 88.1309 167.489 93.4893 167.489C96.3879 167.489 98.9878 168.762 100.766 170.777C102.543 168.762 105.144 167.489 108.043 167.489ZM100.913 181.896C100.247 182.925 99.3702 183.802 98.3408 184.468C99.3704 185.134 100.247 186.011 100.913 187.041C101.579 186.011 102.456 185.134 103.485 184.468C102.456 183.802 101.579 182.925 100.913 181.896Z" fill="#282A31"/>
</g>
<path d="M26.0712 149.569C25.2872 149.569 24.5672 149.385 23.9112 149.017C23.2552 148.649 22.7352 148.141 22.3512 147.493C21.9672 146.837 21.7752 146.097 21.7752 145.273C21.7752 144.457 21.9672 143.725 22.3512 143.077C22.7352 142.421 23.2552 141.909 23.9112 141.541C24.5672 141.173 25.2872 140.989 26.0712 140.989C26.8632 140.989 27.5832 141.173 28.2312 141.541C28.8872 141.909 29.4032 142.421 29.7792 143.077C30.1632 143.725 30.3552 144.457 30.3552 145.273C30.3552 146.097 30.1632 146.837 29.7792 147.493C29.4032 148.141 28.8872 148.649 28.2312 149.017C27.5752 149.385 26.8552 149.569 26.0712 149.569ZM26.0712 148.069C26.5752 148.069 27.0192 147.957 27.4032 147.733C27.7872 147.501 28.0872 147.173 28.3032 146.749C28.5192 146.325 28.6272 145.833 28.6272 145.273C28.6272 144.713 28.5192 144.225 28.3032 143.809C28.0872 143.385 27.7872 143.061 27.4032 142.837C27.0192 142.613 26.5752 142.501 26.0712 142.501C25.5672 142.501 25.1192 142.613 24.7272 142.837C24.3432 143.061 24.0432 143.385 23.8272 143.809C23.6112 144.225 23.5032 144.713 23.5032 145.273C23.5032 145.833 23.6112 146.325 23.8272 146.749C24.0432 147.173 24.3432 147.501 24.7272 147.733C25.1192 147.957 25.5672 148.069 26.0712 148.069ZM35.0491 142.741C35.8411 142.741 36.4811 142.993 36.9691 143.497C37.4571 143.993 37.7011 144.689 37.7011 145.585V149.485H36.0211V145.813C36.0211 145.285 35.8891 144.881 35.6251 144.601C35.3611 144.313 35.0011 144.169 34.5451 144.169C34.0811 144.169 33.7131 144.313 33.4411 144.601C33.1771 144.881 33.0451 145.285 33.0451 145.813V149.485H31.3651V142.837H33.0451V143.665C33.2691 143.377 33.5531 143.153 33.8971 142.993C34.2491 142.825 34.6331 142.741 35.0491 142.741ZM45.2387 146.017C45.2387 146.257 45.2227 146.473 45.1907 146.665H40.3307C40.3707 147.145 40.5387 147.521 40.8347 147.793C41.1307 148.065 41.4947 148.201 41.9267 148.201C42.5507 148.201 42.9947 147.933 43.2587 147.397H45.0707C44.8787 148.037 44.5107 148.565 43.9667 148.981C43.4227 149.389 42.7547 149.593 41.9627 149.593C41.3227 149.593 40.7467 149.453 40.2347 149.173C39.7307 148.885 39.3347 148.481 39.0467 147.961C38.7667 147.441 38.6267 146.841 38.6267 146.161C38.6267 145.473 38.7667 144.869 39.0467 144.349C39.3267 143.829 39.7187 143.429 40.2227 143.149C40.7267 142.869 41.3067 142.729 41.9627 142.729C42.5947 142.729 43.1587 142.865 43.6547 143.137C44.1587 143.409 44.5467 143.797 44.8187 144.301C45.0987 144.797 45.2387 145.369 45.2387 146.017ZM43.4987 145.537C43.4907 145.105 43.3347 144.761 43.0307 144.505C42.7267 144.241 42.3547 144.109 41.9147 144.109C41.4987 144.109 41.1467 144.237 40.8587 144.493C40.5787 144.741 40.4067 145.089 40.3427 145.537H43.4987ZM53.7283 141.109V146.989C53.7283 147.805 53.4923 148.441 53.0203 148.897C52.5483 149.345 51.9163 149.569 51.1243 149.569C50.3243 149.569 49.6763 149.337 49.1803 148.873C48.6923 148.409 48.4483 147.761 48.4483 146.929H50.1283C50.1363 147.289 50.2203 147.569 50.3803 147.769C50.5483 147.969 50.7883 148.069 51.1003 148.069C51.4043 148.069 51.6363 147.973 51.7963 147.781C51.9563 147.589 52.0363 147.325 52.0363 146.989V141.109H53.7283ZM58.4001 149.593C57.7601 149.593 57.1841 149.453 56.6721 149.173C56.1601 148.885 55.7561 148.481 55.4601 147.961C55.1721 147.441 55.0281 146.841 55.0281 146.161C55.0281 145.481 55.1761 144.881 55.4721 144.361C55.7761 143.841 56.1881 143.441 56.7081 143.161C57.2281 142.873 57.8081 142.729 58.4481 142.729C59.0881 142.729 59.6681 142.873 60.1881 143.161C60.7081 143.441 61.1161 143.841 61.4121 144.361C61.7161 144.881 61.8681 145.481 61.8681 146.161C61.8681 146.841 61.7121 147.441 61.4001 147.961C61.0961 148.481 60.6801 148.885 60.1521 149.173C59.6321 149.453 59.0481 149.593 58.4001 149.593ZM58.4001 148.129C58.7041 148.129 58.9881 148.057 59.2521 147.913C59.5241 147.761 59.7401 147.537 59.9001 147.241C60.0601 146.945 60.1401 146.585 60.1401 146.161C60.1401 145.529 59.9721 145.045 59.6361 144.709C59.3081 144.365 58.9041 144.193 58.4241 144.193C57.9441 144.193 57.5401 144.365 57.2121 144.709C56.8921 145.045 56.7321 145.529 56.7321 146.161C56.7321 146.793 56.8881 147.281 57.2001 147.625C57.5201 147.961 57.9201 148.129 58.4001 148.129ZM69.1364 142.837V149.485H67.4444V148.645C67.2284 148.933 66.9444 149.161 66.5924 149.329C66.2484 149.489 65.8724 149.569 65.4644 149.569C64.9444 149.569 64.4844 149.461 64.0844 149.245C63.6844 149.021 63.3684 148.697 63.1364 148.273C62.9124 147.841 62.8004 147.329 62.8004 146.737V142.837H64.4804V146.497C64.4804 147.025 64.6124 147.433 64.8764 147.721C65.1404 148.001 65.5004 148.141 65.9564 148.141C66.4204 148.141 66.7844 148.001 67.0484 147.721C67.3124 147.433 67.4444 147.025 67.4444 146.497V142.837H69.1364ZM72.234 143.869C72.45 143.517 72.73 143.241 73.074 143.041C73.426 142.841 73.826 142.741 74.274 142.741V144.505H73.83C73.302 144.505 72.902 144.629 72.63 144.877C72.366 145.125 72.234 145.557 72.234 146.173V149.485H70.554V142.837H72.234V143.869ZM78.8496 142.741C79.6416 142.741 80.2816 142.993 80.7696 143.497C81.2576 143.993 81.5016 144.689 81.5016 145.585V149.485H79.8216V145.813C79.8216 145.285 79.6896 144.881 79.4256 144.601C79.1616 144.313 78.8016 144.169 78.3456 144.169C77.8816 144.169 77.5136 144.313 77.2416 144.601C76.9776 144.881 76.8456 145.285 76.8456 145.813V149.485H75.1656V142.837H76.8456V143.665C77.0696 143.377 77.3536 143.153 77.6976 142.993C78.0496 142.825 78.4336 142.741 78.8496 142.741ZM82.4272 146.137C82.4272 145.465 82.5592 144.869 82.8232 144.349C83.0952 143.829 83.4592 143.429 83.9152 143.149C84.3792 142.869 84.8952 142.729 85.4632 142.729C85.9592 142.729 86.3912 142.829 86.7592 143.029C87.1352 143.229 87.4352 143.481 87.6592 143.785V142.837H89.3512V149.485H87.6592V148.513C87.4432 148.825 87.1432 149.085 86.7592 149.293C86.3832 149.493 85.9472 149.593 85.4512 149.593C84.8912 149.593 84.3792 149.449 83.9152 149.161C83.4592 148.873 83.0952 148.469 82.8232 147.949C82.5592 147.421 82.4272 146.817 82.4272 146.137ZM87.6592 146.161C87.6592 145.753 87.5792 145.405 87.4192 145.117C87.2592 144.821 87.0432 144.597 86.7712 144.445C86.4992 144.285 86.2072 144.205 85.8952 144.205C85.5832 144.205 85.2952 144.281 85.0312 144.433C84.7672 144.585 84.5512 144.809 84.3832 145.105C84.2232 145.393 84.1432 145.737 84.1432 146.137C84.1432 146.537 84.2232 146.889 84.3832 147.193C84.5512 147.489 84.7672 147.717 85.0312 147.877C85.3032 148.037 85.5912 148.117 85.8952 148.117C86.2072 148.117 86.4992 148.041 86.7712 147.889C87.0432 147.729 87.2592 147.505 87.4192 147.217C87.5792 146.921 87.6592 146.569 87.6592 146.161ZM92.432 140.605V149.485H90.752V140.605H92.432ZM95.6878 147.721L94.2838 151.093H93.2038L93.9838 147.721H95.6878ZM103.166 149.569C102.382 149.569 101.662 149.385 101.006 149.017C100.35 148.649 99.8301 148.141 99.4461 147.493C99.0621 146.837 98.8701 146.097 98.8701 145.273C98.8701 144.457 99.0621 143.725 99.4461 143.077C99.8301 142.421 100.35 141.909 101.006 141.541C101.662 141.173 102.382 140.989 103.166 140.989C103.958 140.989 104.678 141.173 105.326 141.541C105.982 141.909 106.498 142.421 106.874 143.077C107.258 143.725 107.45 144.457 107.45 145.273C107.45 146.097 107.258 146.837 106.874 147.493C106.498 148.141 105.982 148.649 105.326 149.017C104.67 149.385 103.95 149.569 103.166 149.569ZM103.166 148.069C103.67 148.069 104.114 147.957 104.498 147.733C104.882 147.501 105.182 147.173 105.398 146.749C105.614 146.325 105.722 145.833 105.722 145.273C105.722 144.713 105.614 144.225 105.398 143.809C105.182 143.385 104.882 143.061 104.498 142.837C104.114 142.613 103.67 142.501 103.166 142.501C102.662 142.501 102.214 142.613 101.822 142.837C101.438 143.061 101.138 143.385 100.922 143.809C100.706 144.225 100.598 144.713 100.598 145.273C100.598 145.833 100.706 146.325 100.922 146.749C101.138 147.173 101.438 147.501 101.822 147.733C102.214 147.957 102.662 148.069 103.166 148.069ZM112.144 142.741C112.936 142.741 113.576 142.993 114.064 143.497C114.552 143.993 114.796 144.689 114.796 145.585V149.485H113.116V145.813C113.116 145.285 112.984 144.881 112.72 144.601C112.456 144.313 112.096 144.169 111.64 144.169C111.176 144.169 110.808 144.313 110.536 144.601C110.272 144.881 110.14 145.285 110.14 145.813V149.485H108.46V142.837H110.14V143.665C110.364 143.377 110.648 143.153 110.992 142.993C111.344 142.825 111.728 142.741 112.144 142.741ZM122.334 146.017C122.334 146.257 122.318 146.473 122.286 146.665H117.426C117.466 147.145 117.634 147.521 117.93 147.793C118.226 148.065 118.59 148.201 119.022 148.201C119.646 148.201 120.09 147.933 120.354 147.397H122.166C121.974 148.037 121.606 148.565 121.062 148.981C120.518 149.389 119.85 149.593 119.058 149.593C118.418 149.593 117.842 149.453 117.33 149.173C116.826 148.885 116.43 148.481 116.142 147.961C115.862 147.441 115.722 146.841 115.722 146.161C115.722 145.473 115.862 144.869 116.142 144.349C116.422 143.829 116.814 143.429 117.318 143.149C117.822 142.869 118.402 142.729 119.058 142.729C119.69 142.729 120.254 142.865 120.75 143.137C121.254 143.409 121.642 143.797 121.914 144.301C122.194 144.797 122.334 145.369 122.334 146.017ZM120.594 145.537C120.586 145.105 120.43 144.761 120.126 144.505C119.822 144.241 119.45 144.109 119.01 144.109C118.594 144.109 118.242 144.237 117.954 144.493C117.674 144.741 117.502 145.089 117.438 145.537H120.594ZM130.691 145.189C131.163 145.277 131.551 145.513 131.855 145.897C132.159 146.281 132.311 146.721 132.311 147.217C132.311 147.665 132.199 148.061 131.975 148.405C131.759 148.741 131.443 149.005 131.027 149.197C130.611 149.389 130.119 149.485 129.551 149.485H125.939V141.109H129.395C129.963 141.109 130.451 141.201 130.859 141.385C131.275 141.569 131.587 141.825 131.795 142.153C132.011 142.481 132.119 142.853 132.119 143.269C132.119 143.757 131.987 144.165 131.723 144.493C131.467 144.821 131.123 145.053 130.691 145.189ZM127.619 144.565H129.155C129.555 144.565 129.863 144.477 130.079 144.301C130.295 144.117 130.403 143.857 130.403 143.521C130.403 143.185 130.295 142.925 130.079 142.741C129.863 142.557 129.555 142.465 129.155 142.465H127.619V144.565ZM129.311 148.117C129.719 148.117 130.035 148.021 130.259 147.829C130.491 147.637 130.607 147.365 130.607 147.013C130.607 146.653 130.487 146.373 130.247 146.173C130.007 145.965 129.683 145.861 129.275 145.861H127.619V148.117H129.311ZM135.09 140.605V149.485H133.41V140.605H135.09ZM142.69 146.017C142.69 146.257 142.674 146.473 142.642 146.665H137.782C137.822 147.145 137.99 147.521 138.286 147.793C138.582 148.065 138.946 148.201 139.378 148.201C140.002 148.201 140.446 147.933 140.71 147.397H142.522C142.33 148.037 141.962 148.565 141.418 148.981C140.874 149.389 140.206 149.593 139.414 149.593C138.774 149.593 138.198 149.453 137.686 149.173C137.182 148.885 136.786 148.481 136.498 147.961C136.218 147.441 136.078 146.841 136.078 146.161C136.078 145.473 136.218 144.869 136.498 144.349C136.778 143.829 137.17 143.429 137.674 143.149C138.178 142.869 138.758 142.729 139.414 142.729C140.046 142.729 140.61 142.865 141.106 143.137C141.61 143.409 141.998 143.797 142.27 144.301C142.55 144.797 142.69 145.369 142.69 146.017ZM140.95 145.537C140.942 145.105 140.786 144.761 140.482 144.505C140.178 144.241 139.806 144.109 139.366 144.109C138.95 144.109 138.598 144.237 138.31 144.493C138.03 144.741 137.858 145.089 137.794 145.537H140.95ZM146.22 149.593C145.676 149.593 145.188 149.497 144.756 149.305C144.324 149.105 143.98 148.837 143.724 148.501C143.476 148.165 143.34 147.793 143.316 147.385H145.008C145.04 147.641 145.164 147.853 145.38 148.021C145.604 148.189 145.88 148.273 146.208 148.273C146.528 148.273 146.776 148.209 146.952 148.081C147.136 147.953 147.228 147.789 147.228 147.589C147.228 147.373 147.116 147.213 146.892 147.109C146.676 146.997 146.328 146.877 145.848 146.749C145.352 146.629 144.944 146.505 144.624 146.377C144.312 146.249 144.04 146.053 143.808 145.789C143.584 145.525 143.472 145.169 143.472 144.721C143.472 144.353 143.576 144.017 143.784 143.713C144 143.409 144.304 143.169 144.696 142.993C145.096 142.817 145.564 142.729 146.1 142.729C146.892 142.729 147.524 142.929 147.996 143.329C148.468 143.721 148.728 144.253 148.776 144.925H147.168C147.144 144.661 147.032 144.453 146.832 144.301C146.64 144.141 146.38 144.061 146.052 144.061C145.748 144.061 145.512 144.117 145.344 144.229C145.184 144.341 145.104 144.497 145.104 144.697C145.104 144.921 145.216 145.093 145.44 145.213C145.664 145.325 146.012 145.441 146.484 145.561C146.964 145.681 147.36 145.805 147.672 145.933C147.984 146.061 148.252 146.261 148.476 146.533C148.708 146.797 148.828 147.149 148.836 147.589C148.836 147.973 148.728 148.317 148.512 148.621C148.304 148.925 148 149.165 147.6 149.341C147.208 149.509 146.748 149.593 146.22 149.593ZM152.519 149.593C151.975 149.593 151.487 149.497 151.055 149.305C150.623 149.105 150.279 148.837 150.023 148.501C149.775 148.165 149.639 147.793 149.615 147.385H151.307C151.339 147.641 151.463 147.853 151.679 148.021C151.903 148.189 152.179 148.273 152.507 148.273C152.827 148.273 153.075 148.209 153.251 148.081C153.435 147.953 153.527 147.789 153.527 147.589C153.527 147.373 153.415 147.213 153.191 147.109C152.975 146.997 152.627 146.877 152.147 146.749C151.651 146.629 151.243 146.505 150.923 146.377C150.611 146.249 150.339 146.053 150.107 145.789C149.883 145.525 149.771 145.169 149.771 144.721C149.771 144.353 149.875 144.017 150.083 143.713C150.299 143.409 150.603 143.169 150.995 142.993C151.395 142.817 151.863 142.729 152.399 142.729C153.191 142.729 153.823 142.929 154.295 143.329C154.767 143.721 155.027 144.253 155.075 144.925H153.467C153.443 144.661 153.331 144.453 153.131 144.301C152.939 144.141 152.679 144.061 152.351 144.061C152.047 144.061 151.811 144.117 151.643 144.229C151.483 144.341 151.403 144.497 151.403 144.697C151.403 144.921 151.515 145.093 151.739 145.213C151.963 145.325 152.311 145.441 152.783 145.561C153.263 145.681 153.659 145.805 153.971 145.933C154.283 146.061 154.551 146.261 154.775 146.533C155.007 146.797 155.127 147.149 155.135 147.589C155.135 147.973 155.027 148.317 154.811 148.621C154.603 148.925 154.299 149.165 153.899 149.341C153.507 149.509 153.047 149.593 152.519 149.593ZM162.454 146.017C162.454 146.257 162.438 146.473 162.406 146.665H157.546C157.586 147.145 157.754 147.521 158.05 147.793C158.346 148.065 158.71 148.201 159.142 148.201C159.766 148.201 160.21 147.933 160.474 147.397H162.286C162.094 148.037 161.726 148.565 161.182 148.981C160.638 149.389 159.97 149.593 159.178 149.593C158.538 149.593 157.962 149.453 157.45 149.173C156.946 148.885 156.55 148.481 156.262 147.961C155.982 147.441 155.842 146.841 155.842 146.161C155.842 145.473 155.982 144.869 156.262 144.349C156.542 143.829 156.934 143.429 157.438 143.149C157.942 142.869 158.522 142.729 159.178 142.729C159.81 142.729 160.374 142.865 160.87 143.137C161.374 143.409 161.762 143.797 162.034 144.301C162.314 144.797 162.454 145.369 162.454 146.017ZM160.714 145.537C160.706 145.105 160.55 144.761 160.246 144.505C159.942 144.241 159.57 144.109 159.13 144.109C158.714 144.109 158.362 144.237 158.074 144.493C157.794 144.741 157.622 145.089 157.558 145.537H160.714ZM163.009 146.137C163.009 145.465 163.141 144.869 163.405 144.349C163.677 143.829 164.045 143.429 164.509 143.149C164.973 142.869 165.489 142.729 166.057 142.729C166.489 142.729 166.901 142.825 167.293 143.017C167.685 143.201 167.997 143.449 168.229 143.761V140.605H169.933V149.485H168.229V148.501C168.021 148.829 167.729 149.093 167.353 149.293C166.977 149.493 166.541 149.593 166.045 149.593C165.485 149.593 164.973 149.449 164.509 149.161C164.045 148.873 163.677 148.469 163.405 147.949C163.141 147.421 163.009 146.817 163.009 146.137ZM168.241 146.161C168.241 145.753 168.161 145.405 168.001 145.117C167.841 144.821 167.625 144.597 167.353 144.445C167.081 144.285 166.789 144.205 166.477 144.205C166.165 144.205 165.877 144.281 165.613 144.433C165.349 144.585 165.133 144.809 164.965 145.105C164.805 145.393 164.725 145.737 164.725 146.137C164.725 146.537 164.805 146.889 164.965 147.193C165.133 147.489 165.349 147.717 165.613 147.877C165.885 148.037 166.173 148.117 166.477 148.117C166.789 148.117 167.081 148.041 167.353 147.889C167.625 147.729 167.841 147.505 168.001 147.217C168.161 146.921 168.241 146.569 168.241 146.161ZM176.881 141.109C177.761 141.109 178.533 141.281 179.197 141.625C179.869 141.969 180.385 142.461 180.745 143.101C181.113 143.733 181.297 144.469 181.297 145.309C181.297 146.149 181.113 146.885 180.745 147.517C180.385 148.141 179.869 148.625 179.197 148.969C178.533 149.313 177.761 149.485 176.881 149.485H173.953V141.109H176.881ZM176.821 148.057C177.701 148.057 178.381 147.817 178.861 147.337C179.341 146.857 179.581 146.181 179.581 145.309C179.581 144.437 179.341 143.757 178.861 143.269C178.381 142.773 177.701 142.525 176.821 142.525H175.633V148.057H176.821ZM181.882 146.137C181.882 145.465 182.014 144.869 182.278 144.349C182.55 143.829 182.914 143.429 183.37 143.149C183.834 142.869 184.35 142.729 184.918 142.729C185.414 142.729 185.846 142.829 186.214 143.029C186.59 143.229 186.89 143.481 187.114 143.785V142.837H188.806V149.485H187.114V148.513C186.898 148.825 186.598 149.085 186.214 149.293C185.838 149.493 185.402 149.593 184.906 149.593C184.346 149.593 183.834 149.449 183.37 149.161C182.914 148.873 182.55 148.469 182.278 147.949C182.014 147.421 181.882 146.817 181.882 146.137ZM187.114 146.161C187.114 145.753 187.034 145.405 186.874 145.117C186.714 144.821 186.498 144.597 186.226 144.445C185.954 144.285 185.662 144.205 185.35 144.205C185.038 144.205 184.75 144.281 184.486 144.433C184.222 144.585 184.006 144.809 183.838 145.105C183.678 145.393 183.598 145.737 183.598 146.137C183.598 146.537 183.678 146.889 183.838 147.193C184.006 147.489 184.222 147.717 184.486 147.877C184.758 148.037 185.046 148.117 185.35 148.117C185.662 148.117 185.954 148.041 186.226 147.889C186.498 147.729 186.714 147.505 186.874 147.217C187.034 146.921 187.114 146.569 187.114 146.161ZM196.567 142.837L192.451 152.629H190.663L192.103 149.317L189.439 142.837H191.323L193.039 147.481L194.779 142.837H196.567Z" fill="black"/>
<path d="M70.5449 15.9858C70.5449 13.5943 72.5061 11.6675 74.8972 11.7098L133.198 12.7412L191.499 11.7098C193.89 11.6675 195.851 13.5943 195.851 15.9858V103.934C195.851 106.325 193.89 108.252 191.499 108.21L133.198 107.178L74.8972 108.21C72.5061 108.252 70.5449 106.325 70.5449 103.934V15.9858Z" fill="#47D27D"/>
<path d="M73.6966 15.9598C73.7899 14.6699 74.8282 13.6509 76.1196 13.5818L184.884 7.76122C185.605 7.72266 186.309 7.98921 186.823 8.49559L191.344 12.9486C191.834 13.4311 192.11 14.0899 192.11 14.7774V101.328C192.11 102.764 190.933 103.92 189.498 103.895L132.985 102.906L74.0162 103.919C73.2411 103.933 72.5015 103.595 72.0039 103.001L68.4326 98.7352C68.0048 98.2242 67.7925 97.5668 67.8406 96.9022L73.6966 15.9598Z" fill="#E4E4E4"/>
<path d="M70.5847 11.8387C70.6224 10.6856 71.5681 9.77036 72.7218 9.77036H128.708L183.8 7.7807C185.01 7.73698 186.016 8.70641 186.016 9.91764V95.7624C186.016 96.958 185.035 97.9213 183.84 97.9004L126.891 96.9036L70.0138 97.8991C68.7909 97.9205 67.7992 96.9136 67.8392 95.6912L70.5847 11.8387Z" fill="white"/>
<line y1="-1.15509" x2="88.1847" y2="-1.15509" transform="matrix(-0.0193987 0.999812 -0.999835 -0.0181733 128.494 9.77051)" stroke="#E4E4E4" stroke-width="2.31017"/>
<ellipse cx="8.51575" cy="12.1863" rx="8.51575" ry="12.1863" transform="matrix(-0.662466 -0.749092 -0.749092 0.662466 29.541 103.352)" fill="#23252C"/>
<path d="M13.27 98.2267C13.27 112.728 28.4748 115.481 47.2307 115.481C65.9867 115.481 81.1914 112.728 81.1914 98.2267C81.1914 83.7251 65.9867 71.9692 47.2307 71.9692C28.4748 71.9692 13.27 83.7251 13.27 98.2267Z" fill="#282A31"/>
<circle cx="19.1292" cy="19.1292" r="19.1292" transform="matrix(-1 0 0 1 108.934 32.5991)" fill="#282A31"/>
<circle cx="23.3181" cy="23.3181" r="23.3181" transform="matrix(-1 0 0 1 117.312 64.7129)" fill="#282A31"/>
<circle cx="19.1292" cy="19.1292" r="19.1292" transform="matrix(-1 0 0 1 78.498 32.5991)" fill="#282A31"/>
<ellipse cx="41.4699" cy="23.5973" rx="41.4699" ry="23.5973" transform="matrix(-1 0 0 1 116.197 68.9019)" fill="#282A31"/>
<circle cx="6.98146" cy="6.98146" r="6.98146" transform="matrix(-1 0 0 1 81.5684 62.2007)" fill="#282A31"/>
<path d="M83.9714 87.8123C84.4772 88.434 85.4412 88.3852 85.8816 87.7157L87.4174 85.3809C87.9509 84.5697 87.3366 83.4962 86.3669 83.5453L83.0675 83.7123C82.0978 83.7614 81.595 84.8914 82.2078 85.6446L83.9714 87.8123Z" fill="#FAE100"/>
<circle cx="23.3181" cy="23.3181" r="23.3181" transform="matrix(-1 0 0 1 78.498 64.7129)" fill="url(#paint0_linear_490_36262)"/>
<circle cx="8.49017" cy="8.49017" r="8.49017" transform="matrix(-1 0 0 1 31.8105 68.8643)" fill="url(#paint1_linear_490_36262)"/>
<ellipse cx="90.8115" cy="114.012" rx="11.8193" ry="9.61692" fill="url(#paint2_linear_490_36262)"/>
<path d="M89.0423 127.554C89.0405 127.971 88.6377 128.268 88.2389 128.147L80.466 125.79L89.0784 119.436L89.0423 127.554Z" fill="#EFEFEF"/>
<rect width="10.6517" height="37.4951" transform="matrix(-0.804714 0.593663 0.593663 0.804714 66.8164 89.2593)" fill="#FFF5B1"/>
<rect width="2.91961" height="35.1106" transform="matrix(-0.804714 0.593663 0.593663 0.804714 68.2363 91.1802)" fill="#FFDE00"/>
<rect width="2.91961" height="35.1106" transform="matrix(-0.804714 0.593663 0.593663 0.804714 65.1055 93.4937)" fill="#FFDE00"/>
<rect width="2.91961" height="35.1106" transform="matrix(-0.804714 0.593663 0.593663 0.804714 61.9746 95.7998)" fill="#FFDE00"/>
<rect width="10.7052" height="2.40069" transform="matrix(-0.804714 0.593663 0.593663 0.804714 66.8145 89.2495)" fill="#FF5247"/>
<path d="M65.777 87.841C65.1041 86.9289 63.8192 86.7349 62.907 87.4079L57.5955 91.3264C56.6834 91.9993 56.4894 93.2842 57.1623 94.1963L58.205 95.6097L66.8197 89.2544L65.777 87.841Z" fill="#FFCBC8"/>
<path d="M88.495 128.232C88.7712 128.312 89.0483 128.108 89.053 127.82L89.0918 125.379L86.1503 127.549L88.495 128.232Z" fill="#3C3E48" fill-opacity="0.7"/>
<ellipse cx="62.9147" cy="114.013" rx="12.5534" ry="10.351" fill="url(#paint3_linear_490_36262)"/>
<rect x="88.1074" y="77.2578" width="6.20856" height="1.97029" rx="0.985146" transform="rotate(21.308 88.1074 77.2578)" fill="white"/>
<rect width="6.69181" height="1.95792" rx="0.978958" transform="matrix(-0.957341 0.28896 0.28896 0.957341 78.7305 77.8003)" fill="white"/>
<path d="M11.0869 15.5518C11.3552 15.0702 12.04 15.0485 12.3382 15.5121L16.1891 21.498C16.2541 21.599 16.3429 21.6823 16.4477 21.7407L22.6655 25.2048C23.1471 25.4731 23.1688 26.1579 22.7052 26.4561L16.7193 30.307C16.6184 30.372 16.535 30.4608 16.4766 30.5656L13.0126 36.7834C12.7443 37.265 12.0595 37.2867 11.7612 36.8231L7.91031 30.8372C7.84538 30.7362 7.75656 30.6529 7.65172 30.5945L1.4339 27.1304C0.952352 26.8622 0.930643 26.1774 1.39423 25.8791L7.38016 22.0282C7.48109 21.9633 7.56445 21.8744 7.62285 21.7696L11.0869 15.5518Z" fill="#FFE37E"/>
<path d="M44.8868 8.67847C45.1749 8.84092 45.1858 9.25186 44.9067 9.42937L40.0552 12.5153C39.9944 12.554 39.9441 12.607 39.9088 12.6697L37.0846 17.6782C36.9222 17.9663 36.5112 17.9772 36.3337 17.6981L33.2478 12.8466C33.2091 12.7858 33.1561 12.7355 33.0934 12.7001L28.0849 9.87598C27.7968 9.71353 27.7859 9.30258 28.065 9.12507L32.9165 6.03913C32.9773 6.00049 33.0276 5.94746 33.0629 5.88473L35.8871 0.876281C36.0495 0.588185 36.4605 0.577275 36.638 0.856344L39.7239 5.70789C39.7626 5.76864 39.8156 5.81893 39.8783 5.8543L44.8868 8.67847Z" fill="#FFE63C"/>
<path d="M217.522 36.382C217.742 36.5057 217.75 36.8185 217.538 36.9537L213.844 39.3029C213.798 39.3323 213.76 39.3727 213.733 39.4204L211.583 43.2332C211.459 43.4525 211.146 43.4609 211.011 43.2484L208.662 39.5551C208.633 39.5088 208.592 39.4705 208.544 39.4436L204.732 37.2937C204.512 37.17 204.504 36.8572 204.717 36.722L208.41 34.3728C208.456 34.3434 208.494 34.303 208.521 34.2553L210.671 30.4425C210.795 30.2232 211.108 30.2149 211.243 30.4273L213.592 34.1206C213.622 34.1669 213.662 34.2052 213.71 34.2321L217.522 36.382Z" fill="#FFE63C"/>
<rect opacity="0.05" width="44.1051" height="2.82355" rx="1.41178" transform="matrix(0.999949 -0.0100577 0.010404 0.999946 135.773 50.5303)" fill="#515151"/>
<rect opacity="0.05" width="44.1049" height="2.82357" rx="1.41178" transform="matrix(0.999874 -0.0158548 0.0167841 0.999859 135.941 40.394)" fill="#515151"/>
<rect opacity="0.05" width="44.1049" height="2.82357" rx="1.41179" transform="matrix(0.999846 -0.0175621 0.0185914 0.999827 136.115 30.4229)" fill="#515151"/>
<rect opacity="0.05" width="44.1044" height="2.8236" rx="1.4118" transform="matrix(0.999661 -0.0260361 0.0275614 0.99962 136.283 20.0869)" fill="#515151"/>
<rect opacity="0.05" x="135.605" y="60.7612" width="42.8666" height="2.82355" rx="1.41177" transform="rotate(-0.493538 135.605 60.7612)" fill="#515151"/>
<rect opacity="0.05" x="135.443" y="70.8853" width="15.808" height="2.82355" rx="1.41177" transform="rotate(-0.11455 135.443 70.8853)" fill="#515151"/>
<rect opacity="0.05" width="42.8666" height="2.82355" rx="1.41177" transform="matrix(-0.99968 -0.0253106 -0.0253106 0.99968 120.875 50.854)" fill="#515151"/>
<rect opacity="0.05" width="42.8666" height="2.82355" rx="1.41177" transform="matrix(-0.999507 -0.0313921 -0.0313921 0.999507 120.863 40.7173)" fill="#515151"/>
<rect opacity="0.05" width="42.8666" height="2.82355" rx="1.41177" transform="matrix(-0.999894 -0.0145663 -0.0145663 0.999894 120.83 30.3457)" fill="#515151"/>
<rect opacity="0.05" width="42.8666" height="2.82355" rx="1.41177" transform="matrix(-0.999972 -0.00751546 -0.00751546 0.999972 120.809 19.6704)" fill="#515151"/>
<rect opacity="0.05" width="42.8666" height="2.82355" rx="1.41177" transform="matrix(-0.999719 -0.0236954 -0.0236954 0.999719 120.889 61.0869)" fill="#515151"/>
<rect opacity="0.05" width="15.808" height="2.82355" rx="1.41177" transform="matrix(-0.999854 -0.0170822 -0.0170822 0.999854 120.898 71.2124)" fill="#515151"/>
<rect opacity="0.05" width="15.808" height="2.82355" rx="1.41177" transform="matrix(-0.999854 -0.0170822 -0.0170822 0.999854 120.898 81.6392)" fill="#515151"/>
<path d="M158.119 6.63954C158.119 5.94422 158.673 5.37536 159.368 5.35657L175.796 4.91258C176.518 4.89306 177.114 5.47314 177.114 6.19554V38.9184C177.114 39.8261 176.197 40.4469 175.354 40.1103L168.093 37.2099C167.787 37.0878 167.446 37.0878 167.14 37.2099L159.879 40.1103C159.036 40.4469 158.119 39.8261 158.119 38.9184V6.63954Z" fill="#A5D0FF"/>
<ellipse cx="183.256" cy="86.2554" rx="11.2556" ry="11.2554" fill="#A9F1B0"/>
<ellipse cx="183.256" cy="102.842" rx="11.2556" ry="11.2554" fill="#A9F1B0"/>
<ellipse cx="199.841" cy="86.2554" rx="11.2556" ry="11.2554" fill="#A9F1B0"/>
<ellipse cx="199.841" cy="102.842" rx="11.2556" ry="11.2554" fill="#A9F1B0"/>
<path d="M188.586 93.9565C189.927 93.0888 191.069 91.9469 191.937 90.6059C192.804 91.9469 193.946 93.0888 195.287 93.9565C193.946 94.8243 192.804 95.9662 191.937 97.3072C191.069 95.9662 189.927 94.8243 188.586 93.9565Z" fill="white"/>
<defs>
<linearGradient id="paint0_linear_490_36262" x1="0" y1="23.3181" x2="46.6362" y2="23.3181" gradientUnits="userSpaceOnUse">
<stop offset="0.697115" stop-color="#282A31"/>
<stop offset="1" stop-color="#343536"/>
</linearGradient>
<linearGradient id="paint1_linear_490_36262" x1="3.03224" y1="14.6823" x2="14.2642" y2="1.248" gradientUnits="userSpaceOnUse">
<stop stop-color="#282A31"/>
<stop offset="1" stop-color="#51545D"/>
</linearGradient>
<linearGradient id="paint2_linear_490_36262" x1="93.2532" y1="111.984" x2="100.063" y2="98.2907" gradientUnits="userSpaceOnUse">
<stop offset="0.184" stop-color="#32343E"/>
<stop offset="1" stop-color="#8A8D98"/>
</linearGradient>
<linearGradient id="paint3_linear_490_36262" x1="65.5081" y1="111.83" x2="72.8962" y2="97.1692" gradientUnits="userSpaceOnUse">
<stop offset="0.184" stop-color="#32343E"/>
<stop offset="1" stop-color="#8A8D98"/>
</linearGradient>
<clipPath id="clip0_490_36262">
<rect width="162.511" height="57" fill="white" transform="translate(28 159)"/>
</clipPath>
</defs>
</svg>
