<svg width="219" height="216" viewBox="0 0 219 216" fill="none" xmlns="http://www.w3.org/2000/svg">
<g clip-path="url(#clip0_12083_90828)">
<path d="M187.641 169.915C189.001 169.915 189.92 171.304 189.387 172.555L171.393 214.846C171.096 215.546 170.408 216 169.648 216H165.292C163.922 216 163.004 214.593 163.556 213.339L168.917 201.156C169.126 200.681 169.132 200.142 168.932 199.663L157.646 172.541C157.126 171.292 158.044 169.915 159.398 169.915H164.212C165.004 169.915 165.712 170.406 165.99 171.148L173.35 190.828C173.473 191.156 173.937 191.157 174.061 190.83L181.528 171.14C181.808 170.402 182.514 169.915 183.302 169.915H187.641Z" fill="#282A31"/>
<path d="M121.383 185.125C121.383 181.952 122.007 179.137 123.256 176.681C124.542 174.226 126.282 172.337 128.477 171.014C130.671 169.692 133.111 169.031 135.797 169.031C137.84 169.031 139.789 169.484 141.643 170.391C143.111 171.079 144.343 171.958 145.337 173.025C145.585 173.293 146.069 173.125 146.069 172.76V160.897C146.069 159.849 146.919 159 147.966 159H152.23C153.278 159 154.128 159.849 154.128 160.897V199.039C154.128 200.087 153.278 200.937 152.23 200.937H147.966C146.919 200.937 146.069 200.087 146.069 199.039V197.595C146.069 197.215 145.543 197.052 145.3 197.343C144.406 198.415 143.282 199.31 141.926 200.03C140.148 200.975 138.086 201.447 135.741 201.447C133.092 201.447 130.671 200.767 128.477 199.407C126.282 198.047 124.542 196.139 123.256 193.683C122.007 191.189 121.383 188.337 121.383 185.125ZM146.126 185.239C146.126 183.312 145.748 181.669 144.991 180.308C144.234 178.911 143.213 177.853 141.926 177.135C140.64 176.379 139.259 176.001 137.784 176.001C136.308 176.001 134.946 176.36 133.698 177.078C132.449 177.796 131.428 178.854 130.633 180.252C129.877 181.612 129.498 183.236 129.498 185.125C129.498 187.015 129.877 188.677 130.633 190.113C131.428 191.51 132.449 192.587 133.698 193.343C134.984 194.098 136.346 194.476 137.784 194.476C139.259 194.476 140.64 194.117 141.926 193.399C143.213 192.644 144.234 191.586 144.991 190.226C145.748 188.828 146.126 187.166 146.126 185.239Z" fill="#282A31"/>
<path d="M78.2517 159C79.2995 159 80.1489 159.849 80.1489 160.897V199.55C80.1489 200.597 79.2995 201.447 78.2517 201.447H73.5569C72.509 201.447 71.6596 200.597 71.6596 199.55V160.897C71.6596 159.849 72.509 159 73.5569 159H78.2517Z" fill="#282A31"/>
<path d="M28 181.464C28 177.61 28.8725 174.167 30.6176 171.136C32.4006 168.067 34.8095 165.691 37.8444 164.007C40.9172 162.286 44.3504 161.425 48.144 161.425C52.5825 161.425 56.471 162.548 59.8093 164.793C62.4301 166.556 64.4313 168.849 65.8129 171.672C66.3826 172.836 65.4687 174.111 64.1727 174.111H58.8337C58.1077 174.111 57.4583 173.688 57.073 173.073C56.2207 171.712 55.1222 170.655 53.7775 169.901C52.1463 168.966 50.2495 168.498 48.0871 168.498C45.773 168.498 43.7055 169.04 41.8846 170.126C40.1016 171.173 38.6979 172.67 37.6737 174.616C36.6873 176.562 36.1942 178.845 36.1942 181.464C36.1942 184.046 36.6873 186.329 37.6737 188.312C38.6979 190.258 40.1016 191.773 41.8846 192.859C43.7055 193.906 45.773 194.43 48.0871 194.43C50.2495 194.43 52.1463 193.962 53.7775 193.027C55.1227 192.243 56.2215 191.167 57.0739 189.8C57.458 189.184 58.1077 188.761 58.8337 188.761H64.1805C65.4742 188.761 66.3882 190.032 65.825 191.196C64.4429 194.054 62.4377 196.367 59.8093 198.135C56.5089 200.343 52.6205 201.447 48.144 201.447C44.3504 201.447 40.9172 200.605 37.8444 198.921C34.8095 197.199 32.4006 194.823 30.6176 191.792C28.8725 188.761 28 185.318 28 181.464Z" fill="#282A31"/>
<path d="M108.042 167.489C113.4 167.489 117.744 171.833 117.744 177.191C117.744 180.09 116.472 182.69 114.456 184.468C116.472 186.246 117.744 188.846 117.744 191.745C117.744 197.103 113.4 201.447 108.042 201.447C105.143 201.447 102.543 200.174 100.766 198.158C98.9879 200.174 96.3882 201.447 93.4894 201.447C88.1312 201.447 83.7875 197.103 83.7872 191.745C83.7872 188.846 85.0599 186.246 87.0753 184.468C85.06 182.69 83.7872 180.09 83.7872 177.191C83.7872 171.833 88.131 167.489 93.4894 167.489C96.388 167.489 98.9879 168.762 100.766 170.777C102.543 168.762 105.144 167.489 108.042 167.489ZM100.913 181.896C100.247 182.925 99.3696 183.802 98.34 184.468C99.3696 185.134 100.247 186.011 100.913 187.041C101.579 186.011 102.456 185.134 103.485 184.468C102.456 183.802 101.579 182.925 100.913 181.896Z" fill="#282A31"/>
</g>
<path d="M31.9015 149.569C31.1175 149.569 30.3975 149.385 29.7415 149.017C29.0855 148.649 28.5655 148.141 28.1815 147.493C27.7975 146.837 27.6055 146.097 27.6055 145.273C27.6055 144.457 27.7975 143.725 28.1815 143.077C28.5655 142.421 29.0855 141.909 29.7415 141.541C30.3975 141.173 31.1175 140.989 31.9015 140.989C32.6935 140.989 33.4135 141.173 34.0615 141.541C34.7175 141.909 35.2335 142.421 35.6095 143.077C35.9935 143.725 36.1855 144.457 36.1855 145.273C36.1855 146.097 35.9935 146.837 35.6095 147.493C35.2335 148.141 34.7175 148.649 34.0615 149.017C33.4055 149.385 32.6855 149.569 31.9015 149.569ZM31.9015 148.069C32.4055 148.069 32.8495 147.957 33.2335 147.733C33.6175 147.501 33.9175 147.173 34.1335 146.749C34.3495 146.325 34.4575 145.833 34.4575 145.273C34.4575 144.713 34.3495 144.225 34.1335 143.809C33.9175 143.385 33.6175 143.061 33.2335 142.837C32.8495 142.613 32.4055 142.501 31.9015 142.501C31.3975 142.501 30.9495 142.613 30.5575 142.837C30.1735 143.061 29.8735 143.385 29.6575 143.809C29.4415 144.225 29.3335 144.713 29.3335 145.273C29.3335 145.833 29.4415 146.325 29.6575 146.749C29.8735 147.173 30.1735 147.501 30.5575 147.733C30.9495 147.957 31.3975 148.069 31.9015 148.069ZM40.8794 142.741C41.6714 142.741 42.3114 142.993 42.7994 143.497C43.2874 143.993 43.5314 144.689 43.5314 145.585V149.485H41.8514V145.813C41.8514 145.285 41.7194 144.881 41.4554 144.601C41.1914 144.313 40.8314 144.169 40.3754 144.169C39.9114 144.169 39.5434 144.313 39.2714 144.601C39.0074 144.881 38.8754 145.285 38.8754 145.813V149.485H37.1954V142.837H38.8754V143.665C39.0994 143.377 39.3834 143.153 39.7274 142.993C40.0794 142.825 40.4634 142.741 40.8794 142.741ZM51.069 146.017C51.069 146.257 51.053 146.473 51.021 146.665H46.161C46.201 147.145 46.369 147.521 46.665 147.793C46.961 148.065 47.325 148.201 47.757 148.201C48.381 148.201 48.825 147.933 49.089 147.397H50.901C50.709 148.037 50.341 148.565 49.797 148.981C49.253 149.389 48.585 149.593 47.793 149.593C47.153 149.593 46.577 149.453 46.065 149.173C45.561 148.885 45.165 148.481 44.877 147.961C44.597 147.441 44.457 146.841 44.457 146.161C44.457 145.473 44.597 144.869 44.877 144.349C45.157 143.829 45.549 143.429 46.053 143.149C46.557 142.869 47.137 142.729 47.793 142.729C48.425 142.729 48.989 142.865 49.485 143.137C49.989 143.409 50.377 143.797 50.649 144.301C50.929 144.797 51.069 145.369 51.069 146.017ZM49.329 145.537C49.321 145.105 49.165 144.761 48.861 144.505C48.557 144.241 48.185 144.109 47.745 144.109C47.329 144.109 46.977 144.237 46.689 144.493C46.409 144.741 46.237 145.089 46.173 145.537H49.329ZM59.5586 141.109V146.989C59.5586 147.805 59.3226 148.441 58.8506 148.897C58.3786 149.345 57.7466 149.569 56.9546 149.569C56.1546 149.569 55.5066 149.337 55.0106 148.873C54.5226 148.409 54.2786 147.761 54.2786 146.929H55.9586C55.9666 147.289 56.0506 147.569 56.2106 147.769C56.3786 147.969 56.6186 148.069 56.9306 148.069C57.2346 148.069 57.4666 147.973 57.6266 147.781C57.7866 147.589 57.8666 147.325 57.8666 146.989V141.109H59.5586ZM64.2304 149.593C63.5904 149.593 63.0144 149.453 62.5024 149.173C61.9904 148.885 61.5864 148.481 61.2904 147.961C61.0024 147.441 60.8584 146.841 60.8584 146.161C60.8584 145.481 61.0064 144.881 61.3024 144.361C61.6064 143.841 62.0184 143.441 62.5384 143.161C63.0584 142.873 63.6384 142.729 64.2784 142.729C64.9184 142.729 65.4984 142.873 66.0184 143.161C66.5384 143.441 66.9464 143.841 67.2424 144.361C67.5464 144.881 67.6984 145.481 67.6984 146.161C67.6984 146.841 67.5424 147.441 67.2304 147.961C66.9264 148.481 66.5104 148.885 65.9824 149.173C65.4624 149.453 64.8784 149.593 64.2304 149.593ZM64.2304 148.129C64.5344 148.129 64.8184 148.057 65.0824 147.913C65.3544 147.761 65.5704 147.537 65.7304 147.241C65.8904 146.945 65.9704 146.585 65.9704 146.161C65.9704 145.529 65.8024 145.045 65.4664 144.709C65.1384 144.365 64.7344 144.193 64.2544 144.193C63.7744 144.193 63.3704 144.365 63.0424 144.709C62.7224 145.045 62.5624 145.529 62.5624 146.161C62.5624 146.793 62.7184 147.281 63.0304 147.625C63.3504 147.961 63.7504 148.129 64.2304 148.129ZM74.9667 142.837V149.485H73.2747V148.645C73.0587 148.933 72.7747 149.161 72.4227 149.329C72.0787 149.489 71.7027 149.569 71.2947 149.569C70.7747 149.569 70.3147 149.461 69.9147 149.245C69.5147 149.021 69.1987 148.697 68.9667 148.273C68.7427 147.841 68.6307 147.329 68.6307 146.737V142.837H70.3107V146.497C70.3107 147.025 70.4427 147.433 70.7067 147.721C70.9707 148.001 71.3307 148.141 71.7867 148.141C72.2507 148.141 72.6147 148.001 72.8787 147.721C73.1427 147.433 73.2747 147.025 73.2747 146.497V142.837H74.9667ZM78.0643 143.869C78.2803 143.517 78.5603 143.241 78.9043 143.041C79.2563 142.841 79.6563 142.741 80.1043 142.741V144.505H79.6603C79.1323 144.505 78.7323 144.629 78.4603 144.877C78.1963 145.125 78.0643 145.557 78.0643 146.173V149.485H76.3843V142.837H78.0643V143.869ZM84.6799 142.741C85.4719 142.741 86.1119 142.993 86.5999 143.497C87.0879 143.993 87.3319 144.689 87.3319 145.585V149.485H85.6519V145.813C85.6519 145.285 85.5199 144.881 85.2559 144.601C84.9919 144.313 84.6319 144.169 84.1759 144.169C83.7119 144.169 83.3439 144.313 83.0719 144.601C82.8079 144.881 82.6759 145.285 82.6759 145.813V149.485H80.9959V142.837H82.6759V143.665C82.8999 143.377 83.1839 143.153 83.5279 142.993C83.8799 142.825 84.2639 142.741 84.6799 142.741ZM88.2575 146.137C88.2575 145.465 88.3895 144.869 88.6535 144.349C88.9255 143.829 89.2895 143.429 89.7455 143.149C90.2095 142.869 90.7255 142.729 91.2935 142.729C91.7895 142.729 92.2215 142.829 92.5895 143.029C92.9655 143.229 93.2655 143.481 93.4895 143.785V142.837H95.1815V149.485H93.4895V148.513C93.2735 148.825 92.9735 149.085 92.5895 149.293C92.2135 149.493 91.7775 149.593 91.2815 149.593C90.7215 149.593 90.2095 149.449 89.7455 149.161C89.2895 148.873 88.9255 148.469 88.6535 147.949C88.3895 147.421 88.2575 146.817 88.2575 146.137ZM93.4895 146.161C93.4895 145.753 93.4095 145.405 93.2495 145.117C93.0895 144.821 92.8735 144.597 92.6015 144.445C92.3295 144.285 92.0375 144.205 91.7255 144.205C91.4135 144.205 91.1255 144.281 90.8615 144.433C90.5975 144.585 90.3815 144.809 90.2135 145.105C90.0535 145.393 89.9735 145.737 89.9735 146.137C89.9735 146.537 90.0535 146.889 90.2135 147.193C90.3815 147.489 90.5975 147.717 90.8615 147.877C91.1335 148.037 91.4215 148.117 91.7255 148.117C92.0375 148.117 92.3295 148.041 92.6015 147.889C92.8735 147.729 93.0895 147.505 93.2495 147.217C93.4095 146.921 93.4895 146.569 93.4895 146.161ZM98.2623 140.605V149.485H96.5823V140.605H98.2623ZM101.518 147.721L100.114 151.093H99.0341L99.8141 147.721H101.518ZM108.996 149.569C108.212 149.569 107.492 149.385 106.836 149.017C106.18 148.649 105.66 148.141 105.276 147.493C104.892 146.837 104.7 146.097 104.7 145.273C104.7 144.457 104.892 143.725 105.276 143.077C105.66 142.421 106.18 141.909 106.836 141.541C107.492 141.173 108.212 140.989 108.996 140.989C109.788 140.989 110.508 141.173 111.156 141.541C111.812 141.909 112.328 142.421 112.704 143.077C113.088 143.725 113.28 144.457 113.28 145.273C113.28 146.097 113.088 146.837 112.704 147.493C112.328 148.141 111.812 148.649 111.156 149.017C110.5 149.385 109.78 149.569 108.996 149.569ZM108.996 148.069C109.5 148.069 109.944 147.957 110.328 147.733C110.712 147.501 111.012 147.173 111.228 146.749C111.444 146.325 111.552 145.833 111.552 145.273C111.552 144.713 111.444 144.225 111.228 143.809C111.012 143.385 110.712 143.061 110.328 142.837C109.944 142.613 109.5 142.501 108.996 142.501C108.492 142.501 108.044 142.613 107.652 142.837C107.268 143.061 106.968 143.385 106.752 143.809C106.536 144.225 106.428 144.713 106.428 145.273C106.428 145.833 106.536 146.325 106.752 146.749C106.968 147.173 107.268 147.501 107.652 147.733C108.044 147.957 108.492 148.069 108.996 148.069ZM117.974 142.741C118.766 142.741 119.406 142.993 119.894 143.497C120.382 143.993 120.626 144.689 120.626 145.585V149.485H118.946V145.813C118.946 145.285 118.814 144.881 118.55 144.601C118.286 144.313 117.926 144.169 117.47 144.169C117.006 144.169 116.638 144.313 116.366 144.601C116.102 144.881 115.97 145.285 115.97 145.813V149.485H114.29V142.837H115.97V143.665C116.194 143.377 116.478 143.153 116.822 142.993C117.174 142.825 117.558 142.741 117.974 142.741ZM128.164 146.017C128.164 146.257 128.148 146.473 128.116 146.665H123.256C123.296 147.145 123.464 147.521 123.76 147.793C124.056 148.065 124.42 148.201 124.852 148.201C125.476 148.201 125.92 147.933 126.184 147.397H127.996C127.804 148.037 127.436 148.565 126.892 148.981C126.348 149.389 125.68 149.593 124.888 149.593C124.248 149.593 123.672 149.453 123.16 149.173C122.656 148.885 122.26 148.481 121.972 147.961C121.692 147.441 121.552 146.841 121.552 146.161C121.552 145.473 121.692 144.869 121.972 144.349C122.252 143.829 122.644 143.429 123.148 143.149C123.652 142.869 124.232 142.729 124.888 142.729C125.52 142.729 126.084 142.865 126.58 143.137C127.084 143.409 127.472 143.797 127.744 144.301C128.024 144.797 128.164 145.369 128.164 146.017ZM126.424 145.537C126.416 145.105 126.26 144.761 125.956 144.505C125.652 144.241 125.28 144.109 124.84 144.109C124.424 144.109 124.072 144.237 123.784 144.493C123.504 144.741 123.332 145.089 123.268 145.537H126.424ZM133.449 148.153H136.209V149.485H131.769V141.109H133.449V148.153ZM143.313 142.837V149.485H141.621V148.645C141.405 148.933 141.121 149.161 140.769 149.329C140.425 149.489 140.049 149.569 139.641 149.569C139.121 149.569 138.661 149.461 138.261 149.245C137.861 149.021 137.545 148.697 137.313 148.273C137.089 147.841 136.977 147.329 136.977 146.737V142.837H138.657V146.497C138.657 147.025 138.789 147.433 139.053 147.721C139.317 148.001 139.677 148.141 140.133 148.141C140.597 148.141 140.961 148.001 141.225 147.721C141.489 147.433 141.621 147.025 141.621 146.497V142.837H143.313ZM144.299 146.161C144.299 145.473 144.439 144.873 144.719 144.361C144.999 143.841 145.387 143.441 145.883 143.161C146.379 142.873 146.947 142.729 147.587 142.729C148.411 142.729 149.091 142.937 149.627 143.353C150.171 143.761 150.535 144.337 150.719 145.081H148.907C148.811 144.793 148.647 144.569 148.415 144.409C148.191 144.241 147.911 144.157 147.575 144.157C147.095 144.157 146.715 144.333 146.435 144.685C146.155 145.029 146.015 145.521 146.015 146.161C146.015 146.793 146.155 147.285 146.435 147.637C146.715 147.981 147.095 148.153 147.575 148.153C148.255 148.153 148.699 147.849 148.907 147.241H150.719C150.535 147.961 150.171 148.533 149.627 148.957C149.083 149.381 148.403 149.593 147.587 149.593C146.947 149.593 146.379 149.453 145.883 149.173C145.387 148.885 144.999 148.485 144.719 147.973C144.439 147.453 144.299 146.849 144.299 146.161ZM155.646 149.485L153.39 146.653V149.485H151.71V140.605H153.39V145.657L155.622 142.837H157.806L154.878 146.173L157.83 149.485H155.646ZM164.837 142.837L160.721 152.629H158.933L160.373 149.317L157.709 142.837H159.593L161.309 147.481L163.049 142.837H164.837ZM171.05 141.109C171.93 141.109 172.702 141.281 173.366 141.625C174.038 141.969 174.554 142.461 174.914 143.101C175.282 143.733 175.466 144.469 175.466 145.309C175.466 146.149 175.282 146.885 174.914 147.517C174.554 148.141 174.038 148.625 173.366 148.969C172.702 149.313 171.93 149.485 171.05 149.485H168.122V141.109H171.05ZM170.99 148.057C171.87 148.057 172.55 147.817 173.03 147.337C173.51 146.857 173.75 146.181 173.75 145.309C173.75 144.437 173.51 143.757 173.03 143.269C172.55 142.773 171.87 142.525 170.99 142.525H169.802V148.057H170.99ZM176.052 146.137C176.052 145.465 176.184 144.869 176.448 144.349C176.72 143.829 177.084 143.429 177.54 143.149C178.004 142.869 178.52 142.729 179.088 142.729C179.584 142.729 180.016 142.829 180.384 143.029C180.76 143.229 181.06 143.481 181.284 143.785V142.837H182.976V149.485H181.284V148.513C181.068 148.825 180.768 149.085 180.384 149.293C180.008 149.493 179.572 149.593 179.076 149.593C178.516 149.593 178.004 149.449 177.54 149.161C177.084 148.873 176.72 148.469 176.448 147.949C176.184 147.421 176.052 146.817 176.052 146.137ZM181.284 146.161C181.284 145.753 181.204 145.405 181.044 145.117C180.884 144.821 180.668 144.597 180.396 144.445C180.124 144.285 179.832 144.205 179.52 144.205C179.208 144.205 178.92 144.281 178.656 144.433C178.392 144.585 178.176 144.809 178.008 145.105C177.848 145.393 177.768 145.737 177.768 146.137C177.768 146.537 177.848 146.889 178.008 147.193C178.176 147.489 178.392 147.717 178.656 147.877C178.928 148.037 179.216 148.117 179.52 148.117C179.832 148.117 180.124 148.041 180.396 147.889C180.668 147.729 180.884 147.505 181.044 147.217C181.204 146.921 181.284 146.569 181.284 146.161ZM190.737 142.837L186.621 152.629H184.833L186.273 149.317L183.609 142.837H185.493L187.209 147.481L188.949 142.837H190.737Z" fill="black"/>
<path d="M70.545 15.9858C70.545 13.5943 72.5061 11.6675 74.8973 11.7098L133.198 12.7412L191.499 11.7098C193.89 11.6675 195.851 13.5943 195.851 15.9858V103.934C195.851 106.325 193.89 108.252 191.499 108.21L133.198 107.178L74.8973 108.21C72.5061 108.252 70.545 106.325 70.545 103.934V15.9858Z" fill="#47D27D"/>
<path d="M73.6961 15.9598C73.7894 14.6699 74.8277 13.6509 76.1191 13.5818L184.884 7.76122C185.604 7.72266 186.308 7.98921 186.822 8.49559L191.344 12.9486C191.833 13.4311 192.109 14.0899 192.109 14.7774V101.328C192.109 102.764 190.933 103.92 189.498 103.895L132.984 102.906L74.0157 103.919C73.2406 103.933 72.501 103.595 72.0034 103.001L68.4321 98.7352C68.0043 98.2242 67.792 97.5669 67.8401 96.9022L73.6961 15.9598Z" fill="#E4E4E4"/>
<path d="M70.5841 11.8387C70.6219 10.6856 71.5676 9.77036 72.7213 9.77036H128.708L183.8 7.7807C185.01 7.73698 186.015 8.70641 186.015 9.91764V95.7624C186.015 96.958 185.035 97.9213 183.839 97.9004L126.89 96.9036L70.0133 97.8991C68.7903 97.9205 67.7987 96.9136 67.8387 95.6912L70.5841 11.8387Z" fill="white"/>
<line y1="-1.15509" x2="88.1847" y2="-1.15509" transform="matrix(-0.0193987 0.999812 -0.999835 -0.0181733 128.494 9.77051)" stroke="#E4E4E4" stroke-width="2.31017"/>
<ellipse cx="8.51575" cy="12.1863" rx="8.51575" ry="12.1863" transform="matrix(-0.662466 -0.749092 -0.749092 0.662466 29.5402 103.352)" fill="#23252C"/>
<path d="M13.2692 98.2267C13.2692 112.728 28.4739 115.481 47.2299 115.481C65.9859 115.481 81.1906 112.728 81.1906 98.2267C81.1906 83.7251 65.9859 71.9692 47.2299 71.9692C28.4739 71.9692 13.2692 83.7251 13.2692 98.2267Z" fill="#282A31"/>
<circle cx="19.1292" cy="19.1292" r="19.1292" transform="matrix(-1 0 0 1 108.933 32.5991)" fill="#282A31"/>
<circle cx="23.3181" cy="23.3181" r="23.3181" transform="matrix(-1 0 0 1 117.312 64.7129)" fill="#282A31"/>
<circle cx="19.1292" cy="19.1292" r="19.1292" transform="matrix(-1 0 0 1 78.4968 32.5991)" fill="#282A31"/>
<ellipse cx="41.4699" cy="23.5973" rx="41.4699" ry="23.5973" transform="matrix(-1 0 0 1 116.197 68.9019)" fill="#282A31"/>
<circle cx="6.98146" cy="6.98146" r="6.98146" transform="matrix(-1 0 0 1 81.5676 62.2007)" fill="#282A31"/>
<path d="M83.971 87.8123C84.4768 88.434 85.4408 88.3852 85.8812 87.7157L87.4169 85.3809C87.9505 84.5697 87.3362 83.4962 86.3665 83.5453L83.0671 83.7123C82.0974 83.7614 81.5946 84.8914 82.2074 85.6446L83.971 87.8123Z" fill="#FAE100"/>
<circle cx="23.3181" cy="23.3181" r="23.3181" transform="matrix(-1 0 0 1 78.4968 64.7129)" fill="url(#paint0_linear_12083_90828)"/>
<circle cx="8.49017" cy="8.49017" r="8.49017" transform="matrix(-1 0 0 1 31.8098 68.8643)" fill="url(#paint1_linear_12083_90828)"/>
<ellipse cx="90.8104" cy="114.012" rx="11.8193" ry="9.61692" fill="url(#paint2_linear_12083_90828)"/>
<path d="M89.0409 127.554C89.0391 127.971 88.6363 128.268 88.2375 128.147L80.4645 125.79L89.0769 119.436L89.0409 127.554Z" fill="#EFEFEF"/>
<rect width="10.6517" height="37.4951" transform="matrix(-0.804714 0.593663 0.593663 0.804714 66.8152 89.2593)" fill="#FFF5B1"/>
<rect width="2.91961" height="35.1106" transform="matrix(-0.804714 0.593663 0.593663 0.804714 68.2353 91.1802)" fill="#FFDE00"/>
<rect width="2.91961" height="35.1106" transform="matrix(-0.804714 0.593663 0.593663 0.804714 65.1049 93.4937)" fill="#FFDE00"/>
<rect width="2.91961" height="35.1106" transform="matrix(-0.804714 0.593663 0.593663 0.804714 61.9725 95.7998)" fill="#FFDE00"/>
<rect width="10.7052" height="2.40069" transform="matrix(-0.804714 0.593663 0.593663 0.804714 66.8126 89.2495)" fill="#FF5247"/>
<path d="M65.7757 87.841C65.1028 86.9289 63.8179 86.7349 62.9058 87.4079L57.5942 91.3264C56.6821 91.9993 56.4882 93.2842 57.1611 94.1963L58.2038 95.6097L66.8184 89.2544L65.7757 87.841Z" fill="#FFCBC8"/>
<path d="M88.4931 128.232C88.7692 128.312 89.0463 128.108 89.051 127.82L89.0898 125.379L86.1484 127.549L88.4931 128.232Z" fill="#3C3E48" fill-opacity="0.7"/>
<ellipse cx="62.9139" cy="114.013" rx="12.5534" ry="10.351" fill="url(#paint3_linear_12083_90828)"/>
<rect x="88.1073" y="77.2578" width="6.20856" height="1.97029" rx="0.985146" transform="rotate(21.308 88.1073 77.2578)" fill="white"/>
<rect width="6.69181" height="1.95792" rx="0.978958" transform="matrix(-0.957341 0.28896 0.28896 0.957341 78.7307 77.8003)" fill="white"/>
<path d="M11.0869 15.5518C11.3552 15.0702 12.04 15.0485 12.3382 15.5121L16.1891 21.498C16.2541 21.599 16.3429 21.6823 16.4477 21.7407L22.6655 25.2048C23.1471 25.4731 23.1688 26.1579 22.7052 26.4561L16.7193 30.307C16.6184 30.372 16.535 30.4608 16.4766 30.5656L13.0126 36.7834C12.7443 37.265 12.0595 37.2867 11.7612 36.8231L7.91031 30.8372C7.84538 30.7362 7.75656 30.6529 7.65172 30.5945L1.4339 27.1304C0.952352 26.8622 0.930643 26.1774 1.39423 25.8791L7.38016 22.0282C7.48109 21.9633 7.56445 21.8744 7.62285 21.7696L11.0869 15.5518Z" fill="#FFE37E"/>
<path d="M44.8869 8.67847C45.175 8.84092 45.1859 9.25186 44.9068 9.42937L40.0553 12.5153C39.9945 12.554 39.9442 12.607 39.9089 12.6697L37.0847 17.6782C36.9222 17.9663 36.5113 17.9772 36.3338 17.6981L33.2478 12.8466C33.2092 12.7858 33.1562 12.7355 33.0934 12.7001L28.085 9.87598C27.7969 9.71353 27.786 9.30258 28.0651 9.12507L32.9166 6.03913C32.9774 6.00049 33.0276 5.94745 33.063 5.88473L35.8872 0.876281C36.0496 0.588185 36.4606 0.577275 36.6381 0.856344L39.724 5.70789C39.7627 5.76864 39.8157 5.81893 39.8784 5.8543L44.8869 8.67847Z" fill="#FFE63C"/>
<path d="M217.523 36.382C217.742 36.5057 217.751 36.8185 217.538 36.9537L213.845 39.3029C213.799 39.3323 213.76 39.3727 213.734 39.4204L211.584 43.2332C211.46 43.4525 211.147 43.4609 211.012 43.2484L208.663 39.5551C208.633 39.5088 208.593 39.4705 208.545 39.4436L204.732 37.2937C204.513 37.17 204.505 36.8572 204.717 36.722L208.411 34.3728C208.457 34.3434 208.495 34.303 208.522 34.2553L210.672 30.4425C210.796 30.2232 211.108 30.2149 211.244 30.4273L213.593 34.1206C213.622 34.1669 213.663 34.2052 213.71 34.2321L217.523 36.382Z" fill="#FFE63C"/>
<rect opacity="0.05" width="44.1051" height="2.82355" rx="1.41178" transform="matrix(0.999949 -0.0100577 0.010404 0.999946 135.774 50.5303)" fill="#515151"/>
<rect opacity="0.05" width="44.1049" height="2.82357" rx="1.41178" transform="matrix(0.999874 -0.0158548 0.0167841 0.999859 135.942 40.394)" fill="#515151"/>
<rect opacity="0.05" width="44.1049" height="2.82357" rx="1.41179" transform="matrix(0.999846 -0.0175621 0.0185914 0.999827 136.115 30.4229)" fill="#515151"/>
<rect opacity="0.05" width="44.1044" height="2.8236" rx="1.4118" transform="matrix(0.999661 -0.0260361 0.0275614 0.99962 136.283 20.0869)" fill="#515151"/>
<rect opacity="0.05" x="135.605" y="60.7612" width="42.8666" height="2.82355" rx="1.41177" transform="rotate(-0.493538 135.605 60.7612)" fill="#515151"/>
<rect opacity="0.05" x="135.443" y="70.8853" width="15.808" height="2.82355" rx="1.41177" transform="rotate(-0.11455 135.443 70.8853)" fill="#515151"/>
<rect opacity="0.05" width="42.8666" height="2.82355" rx="1.41177" transform="matrix(-0.99968 -0.0253106 -0.0253106 0.99968 120.875 50.854)" fill="#515151"/>
<rect opacity="0.05" width="42.8666" height="2.82355" rx="1.41177" transform="matrix(-0.999507 -0.0313921 -0.0313921 0.999507 120.864 40.7173)" fill="#515151"/>
<rect opacity="0.05" width="42.8666" height="2.82355" rx="1.41177" transform="matrix(-0.999894 -0.0145663 -0.0145663 0.999894 120.829 30.3457)" fill="#515151"/>
<rect opacity="0.05" width="42.8666" height="2.82355" rx="1.41177" transform="matrix(-0.999972 -0.00751546 -0.00751546 0.999972 120.809 19.6704)" fill="#515151"/>
<rect opacity="0.05" width="42.8666" height="2.82355" rx="1.41177" transform="matrix(-0.999719 -0.0236954 -0.0236954 0.999719 120.889 61.0869)" fill="#515151"/>
<rect opacity="0.05" width="15.808" height="2.82355" rx="1.41177" transform="matrix(-0.999854 -0.0170822 -0.0170822 0.999854 120.899 71.2124)" fill="#515151"/>
<rect opacity="0.05" width="15.808" height="2.82355" rx="1.41177" transform="matrix(-0.999854 -0.0170822 -0.0170822 0.999854 120.899 81.6392)" fill="#515151"/>
<path d="M158.119 6.63954C158.119 5.94422 158.672 5.37536 159.367 5.35657L175.795 4.91258C176.517 4.89306 177.113 5.47314 177.113 6.19554V38.9184C177.113 39.8261 176.197 40.4469 175.354 40.1103L168.092 37.2099C167.786 37.0878 167.445 37.0878 167.14 37.2099L159.878 40.1103C159.035 40.4469 158.119 39.8261 158.119 38.9184V6.63954Z" fill="#A5D0FF"/>
<ellipse cx="183.256" cy="86.2554" rx="11.2556" ry="11.2554" fill="#A9F1B0"/>
<ellipse cx="183.256" cy="102.842" rx="11.2556" ry="11.2554" fill="#A9F1B0"/>
<ellipse cx="199.841" cy="86.2554" rx="11.2556" ry="11.2554" fill="#A9F1B0"/>
<ellipse cx="199.841" cy="102.842" rx="11.2556" ry="11.2554" fill="#A9F1B0"/>
<path d="M188.586 93.9565V93.9565C189.927 93.0888 191.069 91.9469 191.937 90.6059V90.6059V90.6059C192.804 91.9469 193.946 93.0888 195.287 93.9565V93.9565V93.9565C193.946 94.8243 192.804 95.9662 191.937 97.3072V97.3072V97.3072C191.069 95.9662 189.927 94.8243 188.586 93.9565V93.9565Z" fill="white"/>
<defs>
<linearGradient id="paint0_linear_12083_90828" x1="0" y1="23.3181" x2="46.6362" y2="23.3181" gradientUnits="userSpaceOnUse">
<stop offset="0.697115" stop-color="#282A31"/>
<stop offset="1" stop-color="#343536"/>
</linearGradient>
<linearGradient id="paint1_linear_12083_90828" x1="3.03224" y1="14.6823" x2="14.2642" y2="1.248" gradientUnits="userSpaceOnUse">
<stop stop-color="#282A31"/>
<stop offset="1" stop-color="#51545D"/>
</linearGradient>
<linearGradient id="paint2_linear_12083_90828" x1="93.2521" y1="111.984" x2="100.062" y2="98.2907" gradientUnits="userSpaceOnUse">
<stop offset="0.184" stop-color="#32343E"/>
<stop offset="1" stop-color="#8A8D98"/>
</linearGradient>
<linearGradient id="paint3_linear_12083_90828" x1="65.5073" y1="111.83" x2="72.8953" y2="97.1692" gradientUnits="userSpaceOnUse">
<stop offset="0.184" stop-color="#32343E"/>
<stop offset="1" stop-color="#8A8D98"/>
</linearGradient>
<clipPath id="clip0_12083_90828">
<rect width="162.511" height="57" fill="white" transform="translate(28 159)"/>
</clipPath>
</defs>
</svg>
